<svg xmlns="http://www.w3.org/2000/svg" xmlns:xlink="http://www.w3.org/1999/xlink" width="840" height="602.75"><rect width="840" height="602.75" rx="5" ry="5" class="a"/><svg y="0%" x="0%"><circle cx="20" cy="20" r="6" fill="#ff5f58"/><circle cx="40" cy="20" r="6" fill="#ffbd2e"/><circle cx="60" cy="20" r="6" fill="#18c132"/></svg><svg height="542.75" viewBox="0 0 80 54.275" width="800" x="15" xmlns="http://www.w3.org/2000/svg" xmlns:xlink="http://www.w3.org/1999/xlink" y="50"><style>@keyframes o{0%{transform:translateX(-80px)}.3%{transform:translateX(-160px)}.6%{transform:translateX(-240px)}.9%{transform:translateX(-320px)}1.2%{transform:translateX(-400px)}1.5%{transform:translateX(-480px)}1.9%{transform:translateX(-560px)}2.2%{transform:translateX(-640px)}2.5%{transform:translateX(-720px)}2.8%{transform:translateX(-800px)}3.1%{transform:translateX(-880px)}3.4%{transform:translateX(-960px)}3.7%{transform:translateX(-1040px)}4%{transform:translateX(-1120px)}4.3%{transform:translateX(-1200px)}4.6%{transform:translateX(-1280px)}5%{transform:translateX(-1360px)}5.3%{transform:translateX(-1440px)}5.6%{transform:translateX(-1520px)}5.9%{transform:translateX(-1600px)}6.2%{transform:translateX(-1680px)}6.5%{transform:translateX(-1760px)}6.8%{transform:translateX(-1840px)}7.1%{transform:translateX(-1920px)}7.4%{transform:translateX(-2000px)}7.7%{transform:translateX(-2080px)}8.1%{transform:translateX(-2160px)}8.4%{transform:translateX(-2240px)}8.7%{transform:translateX(-2320px)}9%{transform:translateX(-2400px)}9.3%{transform:translateX(-2480px)}9.6%{transform:translateX(-2560px)}9.9%{transform:translateX(-2640px)}10.2%{transform:translateX(-2720px)}10.5%{transform:translateX(-2800px)}10.8%{transform:translateX(-2880px)}11.2%{transform:translateX(-2960px)}11.5%{transform:translateX(-3040px)}11.8%{transform:translateX(-3120px)}12.1%{transform:translateX(-3200px)}12.4%{transform:translateX(-3280px)}12.7%{transform:translateX(-3360px)}13%{transform:translateX(-3440px)}13.3%{transform:translateX(-3520px)}13.6%{transform:translateX(-3600px)}13.9%{transform:translateX(-3680px)}14.3%{transform:translateX(-3760px)}14.6%{transform:translateX(-3840px)}14.9%{transform:translateX(-3920px)}15.2%{transform:translateX(-4000px)}15.5%{transform:translateX(-4080px)}15.8%{transform:translateX(-4160px)}16.1%{transform:translateX(-4240px)}16.4%{transform:translateX(-4320px)}16.7%{transform:translateX(-4400px)}17%{transform:translateX(-4480px)}21.9%{transform:translateX(-4560px)}22.5%{transform:translateX(-4640px)}26.7%{transform:translateX(-4720px)}32.9%{transform:translateX(-4800px)}33.6%{transform:translateX(-4880px)}38.4%{transform:translateX(-4960px)}41.8%{transform:translateX(-5040px)}46%{transform:translateX(-5120px)}49.4%{transform:translateX(-5200px)}50.8%{transform:translateX(-5280px)}56.3%{transform:translateX(-5360px)}56.7%{transform:translateX(-5440px)}57.1%{transform:translateX(-5520px)}57.5%{transform:translateX(-5600px)}57.9%{transform:translateX(-5680px)}60.3%{transform:translateX(-5760px)}61.7%{transform:translateX(-5840px)}63.1%{transform:translateX(-5920px)}63.5%{transform:translateX(-6000px)}67%{transform:translateX(-6080px)}68.3%{transform:translateX(-6160px)}73.8%{transform:translateX(-6240px)}75.9%{transform:translateX(-6320px)}to{transform:translateX(-6400px)}}.a{fill:#282d35}.f,.g,.h{white-space:pre}.f{fill:#3fb950;font-weight:700}.g,.h{fill:#c9d1d9}.h{fill:#da7756}.i{fill:#7d8590}.i,.j,.k,.m{white-space:pre}.j{fill:#c9d1d9;font-weight:700}.k,.m{fill:#b9c0cb}.m{fill:#3fb950}</style><g font-family="Monaco,Consolas,Menlo,'Bitstream Vera Sans Mono','Powerline Symbols',monospace" font-size="1.67"><defs><symbol id="1"><text y="1.67" class="f">❯</text></symbol><symbol id="2"><text y="1.67" class="f">❯</text><text x="2.004" y="1.67" class="g">is</text></symbol><symbol id="3"><text y="1.67" class="f">❯</text><text x="2.004" y="1.67" class="g">is</text><text x="5.01" y="1.67" class="g">the</text></symbol><symbol id="4"><text y="1.67" class="f">❯</text><text x="2.004" y="1.67" class="g">is</text><text x="5.01" y="1.67" class="g">the</text><text x="9.018" y="1.67" class="g">CLAUDE.md</text></symbol><symbol id="5"><text y="1.67" class="f">❯</text><text x="2.004" y="1.67" class="g">is</text><text x="5.01" y="1.67" class="g">the</text><text x="9.018" y="1.67" class="g">CLAUDE.md</text><text x="19.038" y="1.67" class="g">still</text></symbol><symbol id="6"><text y="1.67" class="f">❯</text><text x="2.004" y="1.67" class="g">is</text><text x="5.01" y="1.67" class="g">the</text><text x="9.018" y="1.67" class="g">CLAUDE.md</text><text x="19.038" y="1.67" class="g">still</text><text x="25.05" y="1.67" class="g">accurate?</text></symbol><symbol id="7"><text y="1.67" class="h">⏺</text><text x="2.004" y="1.67" class="g">Skill</text><text x="7.014" y="1.67" class="i">(doc-lifecycle:detecting-doc-drift)</text></symbol><symbol id="8"><text x="2.004" y="1.67" class="i">⎿</text><text x="4.008" y="1.67" class="i">extracting</text><text x="15.03" y="1.67" class="i">checkable</text><text x="25.05" y="1.67" class="i">claims</text><text x="32.064" y="1.67" class="i">from</text><text x="37.074" y="1.67" class="i">CLAUDE.md</text><text x="47.094" y="1.67" class="i">…</text><text x="49.098" y="1.67" class="i">3</text><text x="51.102" y="1.67" class="i">found</text></symbol><symbol id="9"><text y="1.67" class="h">⏺</text><text x="2.004" y="1.67" class="g">Bash</text><text x="6.012" y="1.67" class="i">(grep</text><text x="12.024" y="1.67" class="i">-n</text><text x="15.03" y="1.67" class="i">&quot;^reset:&quot;</text><text x="25.05" y="1.67" class="i">Makefile)</text></symbol><symbol id="10"><text x="2.004" y="1.67" class="i">⎿</text><text x="4.008" y="1.67" class="i">no</text><text x="7.014" y="1.67" class="i">matches</text><text x="15.03" y="1.67" class="i">—</text><text x="17.034" y="1.67" class="i">Makefile</text><text x="26.052" y="1.67" class="i">has</text><text x="30.06" y="1.67" class="i">clean:,</text><text x="38.076" y="1.67" class="i">no</text><text x="41.082" y="1.67" class="i">reset</text><text x="47.094" y="1.67" class="i">target</text></symbol><symbol id="11"><text y="1.67" class="h">⏺</text><text x="2.004" y="1.67" class="g">Read</text><text x="6.012" y="1.67" class="i">(services/worker/worker.js:17-19)</text></symbol><symbol id="12"><text x="2.004" y="1.67" class="i">⎿</text><text x="4.008" y="1.67" class="i">if</text><text x="7.014" y="1.67" class="i">(schema</text><text x="15.03" y="1.67" class="i">!==</text><text x="19.038" y="1.67" class="i">3)</text><text x="22.044" y="1.67" class="i">…</text><text x="24.048" y="1.67" class="i">process.exit(4)</text></symbol><symbol id="13"><text x="2.004" y="1.67" class="j">drift</text><text x="8.016" y="1.67" class="j">report</text><text x="15.03" y="1.67" class="j">—</text><text x="17.034" y="1.67" class="j">CLAUDE.md</text></symbol><symbol id="14"><text x="2.004" y="1.67" class="k">{</text></symbol><symbol id="15"><text x="4.008" y="1.67" class="i">&quot;claim&quot;:</text><text x="16.032" y="1.67" class="g">&quot;Reset</text><text x="23.046" y="1.67" class="g">state</text><text x="29.058" y="1.67" class="g">=</text><text x="31.062" y="1.67" class="g">`make</text><text x="37.074" y="1.67" class="g">reset`&quot;</text><text x="44.088" y="1.67" class="k">,</text></symbol><symbol id="16"><text x="4.008" y="1.67" class="i">&quot;location&quot;:</text><text x="16.032" y="1.67" class="g">&quot;CLAUDE.md:18&quot;</text><text x="30.06" y="1.67" class="k">,</text></symbol><symbol id="17"><text x="4.008" y="1.67" class="i">&quot;kind&quot;:</text><text x="16.032" y="1.67" class="g">&quot;command&quot;</text><text x="25.05" y="1.67" class="k">,</text><text x="28.056" y="1.67" class="i">&quot;tier&quot;:</text><text x="36.072" y="1.67" class="g">1</text><text x="37.074" y="1.67" class="k">,</text></symbol><symbol id="18"><text x="4.008" y="1.67" class="i">&quot;verdict&quot;:</text><text x="16.032" y="1.67" style="white-space:pre" fill="#f85149">&quot;STALE&quot;</text><text x="23.046" y="1.67" class="k">,</text></symbol><symbol id="19"><text x="4.008" y="1.67" class="i">&quot;evidence&quot;:</text><text x="16.032" y="1.67" class="g">&quot;Makefile</text><text x="26.052" y="1.67" class="g">has</text><text x="30.06" y="1.67" class="g">`clean:`,</text><text x="40.08" y="1.67" class="g">no</text><text x="43.086" y="1.67" class="g">`reset`</text><text x="51.102" y="1.67" class="g">target&quot;</text><text x="58.116" y="1.67" class="k">,</text></symbol><symbol id="20"><text x="4.008" y="1.67" class="i">&quot;fix&quot;:</text><text x="16.032" y="1.67" class="m">&quot;Reset</text><text x="23.046" y="1.67" class="m">state</text><text x="29.058" y="1.67" class="m">=</text><text x="31.062" y="1.67" class="m">`make</text><text x="37.074" y="1.67" class="m">clean`&quot;</text></symbol><symbol id="21"><text x="2.004" y="1.67" class="k">}</text></symbol><symbol id="22"><text x="2.004" y="1.67" class="i">…</text><text x="4.008" y="1.67" class="i">2</text><text x="6.012" y="1.67" class="i">more</text><text x="11.022" y="1.67" class="i">records</text><text x="19.038" y="1.67" class="i">(1</text><text x="22.044" y="1.67" class="i">STALE</text><text x="28.056" y="1.67" class="i">behavior,</text><text x="38.076" y="1.67" class="i">1</text><text x="40.08" y="1.67" class="i">UNVERIFIABLE</text><text x="53.106" y="1.67" class="i">quality</text><text x="61.122" y="1.67" class="i">claim)</text></symbol><symbol id="23"><text y="1.67" class="m">✓</text><text x="2.004" y="1.67" class="g">validate-drift-output.py</text></symbol><symbol id="24"><text x="2.004" y="1.67" class="i">summary:</text><text x="11.022" y="1.67" class="g">{&quot;verified&quot;:</text><text x="24.048" y="1.67" class="g">0,</text><text x="27.054" y="1.67" class="g">&quot;stale&quot;:</text><text x="36.072" y="1.67" class="g">2,</text><text x="39.078" y="1.67" class="g">&quot;unverifiable&quot;:</text><text x="55.11" y="1.67" class="g">1}</text></symbol><symbol id="a"><path fill="transparent" d="M0 0h80v25H0z"/></symbol></defs><path class="a" d="M0 0h80v54.275H0z"/><g style="animation-duration:14.525s;animation-iteration-count:infinite;animation-name:o;animation-timing-function:steps(1,end)"><svg width="6480"><svg><use xlink:href="#a"/></svg><svg x="80"><use xlink:href="#a"/><use xlink:href="#1"/></svg><svg x="160"><use xlink:href="#a"/><use xlink:href="#1"/></svg><svg x="240"><use xlink:href="#a"/><use xlink:href="#1"/></svg><svg x="320"><use xlink:href="#a"/><use xlink:href="#1"/></svg><svg x="400"><use xlink:href="#a"/><use xlink:href="#1"/></svg><svg x="480"><use xlink:href="#a"/><use xlink:href="#1"/></svg><svg x="560"><use xlink:href="#a"/><use xlink:href="#1"/></svg><svg x="640"><use xlink:href="#a"/><use xlink:href="#1"/></svg><svg x="720"><use xlink:href="#a"/><use xlink:href="#1"/></svg><svg x="800"><use xlink:href="#a"/><use xlink:href="#1"/></svg><svg x="880"><use xlink:href="#a"/><use xlink:href="#1"/></svg><svg x="960"><use xlink:href="#a"/><use xlink:href="#1"/></svg><svg x="1040"><use xlink:href="#a"/><use xlink:href="#1"/></svg><svg x="1120"><use xlink:href="#a"/><use xlink:href="#1"/></svg><svg x="1200"><use xlink:href="#a"/><use xlink:href="#1"/></svg><svg x="1280"><use xlink:href="#a"/><use xlink:href="#1"/></svg><svg x="1360"><use xlink:href="#a"/><use xlink:href="#1"/></svg><svg x="1440"><use xlink:href="#a"/><use xlink:href="#1"/></svg><svg x="1520"><use xlink:href="#a"/><use xlink:href="#1"/></svg><svg x="1600"><use xlink:href="#a"/><use xlink:href="#1"/></svg><svg x="1680"><use xlink:href="#a"/><text y="1.67" class="f">❯</text><text x="2.004" y="1.67" class="g">i</text></svg><svg x="1760"><use xlink:href="#a"/><use xlink:href="#2"/></svg><svg x="1840"><use xlink:href="#a"/><use xlink:href="#2"/></svg><svg x="1920"><use xlink:href="#a"/><text y="1.67" class="f">❯</text><text x="2.004" y="1.67" class="g">is</text><text x="5.01" y="1.67" class="g">t</text></svg><svg x="2000"><use xlink:href="#a"/><text y="1.67" class="f">❯</text><text x="2.004" y="1.67" class="g">is</text><text x="5.01" y="1.67" class="g">th</text></svg><svg x="2080"><use xlink:href="#a"/><use xlink:href="#3"/></svg><svg x="2160"><use xlink:href="#a"/><use xlink:href="#3"/></svg><svg x="2240"><use xlink:href="#a"/><text y="1.67" class="f">❯</text><text x="2.004" y="1.67" class="g">is</text><text x="5.01" y="1.67" class="g">the</text><text x="9.018" y="1.67" class="g">C</text></svg><svg x="2320"><use xlink:href="#a"/><text y="1.67" class="f">❯</text><text x="2.004" y="1.67" class="g">is</text><text x="5.01" y="1.67" class="g">the</text><text x="9.018" y="1.67" class="g">CL</text></svg><svg x="2400"><use xlink:href="#a"/><text y="1.67" class="f">❯</text><text x="2.004" y="1.67" class="g">is</text><text x="5.01" y="1.67" class="g">the</text><text x="9.018" y="1.67" class="g">CLA</text></svg><svg x="2480"><use xlink:href="#a"/><text y="1.67" class="f">❯</text><text x="2.004" y="1.67" class="g">is</text><text x="5.01" y="1.67" class="g">the</text><text x="9.018" y="1.67" class="g">CLAU</text></svg><svg x="2560"><use xlink:href="#a"/><text y="1.67" class="f">❯</text><text x="2.004" y="1.67" class="g">is</text><text x="5.01" y="1.67" class="g">the</text><text x="9.018" y="1.67" class="g">CLAUD</text></svg><svg x="2640"><use xlink:href="#a"/><text y="1.67" class="f">❯</text><text x="2.004" y="1.67" class="g">is</text><text x="5.01" y="1.67" class="g">the</text><text x="9.018" y="1.67" class="g">CLAUDE</text></svg><svg x="2720"><use xlink:href="#a"/><text y="1.67" class="f">❯</text><text x="2.004" y="1.67" class="g">is</text><text x="5.01" y="1.67" class="g">the</text><text x="9.018" y="1.67" class="g">CLAUDE.</text></svg><svg x="2800"><use xlink:href="#a"/><text y="1.67" class="f">❯</text><text x="2.004" y="1.67" class="g">is</text><text x="5.01" y="1.67" class="g">the</text><text x="9.018" y="1.67" class="g">CLAUDE.m</text></svg><svg x="2880"><use xlink:href="#a"/><use xlink:href="#4"/></svg><svg x="2960"><use xlink:href="#a"/><use xlink:href="#4"/></svg><svg x="3040"><use xlink:href="#a"/><text y="1.67" class="f">❯</text><text x="2.004" y="1.67" class="g">is</text><text x="5.01" y="1.67" class="g">the</text><text x="9.018" y="1.67" class="g">CLAUDE.md</text><text x="19.038" y="1.67" class="g">s</text></svg><svg x="3120"><use xlink:href="#a"/><text y="1.67" class="f">❯</text><text x="2.004" y="1.67" class="g">is</text><text x="5.01" y="1.67" class="g">the</text><text x="9.018" y="1.67" class="g">CLAUDE.md</text><text x="19.038" y="1.67" class="g">st</text></svg><svg x="3200"><use xlink:href="#a"/><text y="1.67" class="f">❯</text><text x="2.004" y="1.67" class="g">is</text><text x="5.01" y="1.67" class="g">the</text><text x="9.018" y="1.67" class="g">CLAUDE.md</text><text x="19.038" y="1.67" class="g">sti</text></svg><svg x="3280"><use xlink:href="#a"/><text y="1.67" class="f">❯</text><text x="2.004" y="1.67" class="g">is</text><text x="5.01" y="1.67" class="g">the</text><text x="9.018" y="1.67" class="g">CLAUDE.md</text><text x="19.038" y="1.67" class="g">stil</text></svg><svg x="3360"><use xlink:href="#a"/><use xlink:href="#5"/></svg><svg x="3440"><use xlink:href="#a"/><use xlink:href="#5"/></svg><svg x="3520"><use xlink:href="#a"/><text y="1.67" class="f">❯</text><text x="2.004" y="1.67" class="g">is</text><text x="5.01" y="1.67" class="g">the</text><text x="9.018" y="1.67" class="g">CLAUDE.md</text><text x="19.038" y="1.67" class="g">still</text><text x="25.05" y="1.67" class="g">a</text></svg><svg x="3600"><use xlink:href="#a"/><text y="1.67" class="f">❯</text><text x="2.004" y="1.67" class="g">is</text><text x="5.01" y="1.67" class="g">the</text><text x="9.018" y="1.67" class="g">CLAUDE.md</text><text x="19.038" y="1.67" class="g">still</text><text x="25.05" y="1.67" class="g">ac</text></svg><svg x="3680"><use xlink:href="#a"/><text y="1.67" class="f">❯</text><text x="2.004" y="1.67" class="g">is</text><text x="5.01" y="1.67" class="g">the</text><text x="9.018" y="1.67" class="g">CLAUDE.md</text><text x="19.038" y="1.67" class="g">still</text><text x="25.05" y="1.67" class="g">acc</text></svg><svg x="3760"><use xlink:href="#a"/><text y="1.67" class="f">❯</text><text x="2.004" y="1.67" class="g">is</text><text x="5.01" y="1.67" class="g">the</text><text x="9.018" y="1.67" class="g">CLAUDE.md</text><text x="19.038" y="1.67" class="g">still</text><text x="25.05" y="1.67" class="g">accu</text></svg><svg x="3840"><use xlink:href="#a"/><text y="1.67" class="f">❯</text><text x="2.004" y="1.67" class="g">is</text><text x="5.01" y="1.67" class="g">the</text><text x="9.018" y="1.67" class="g">CLAUDE.md</text><text x="19.038" y="1.67" class="g">still</text><text x="25.05" y="1.67" class="g">accur</text></svg><svg x="3920"><use xlink:href="#a"/><text y="1.67" class="f">❯</text><text x="2.004" y="1.67" class="g">is</text><text x="5.01" y="1.67" class="g">the</text><text x="9.018" y="1.67" class="g">CLAUDE.md</text><text x="19.038" y="1.67" class="g">still</text><text x="25.05" y="1.67" class="g">accura</text></svg><svg x="4000"><use xlink:href="#a"/><text y="1.67" class="f">❯</text><text x="2.004" y="1.67" class="g">is</text><text x="5.01" y="1.67" class="g">the</text><text x="9.018" y="1.67" class="g">CLAUDE.md</text><text x="19.038" y="1.67" class="g">still</text><text x="25.05" y="1.67" class="g">accurat</text></svg><svg x="4080"><use xlink:href="#a"/><text y="1.67" class="f">❯</text><text x="2.004" y="1.67" class="g">is</text><text x="5.01" y="1.67" class="g">the</text><text x="9.018" y="1.67" class="g">CLAUDE.md</text><text x="19.038" y="1.67" class="g">still</text><text x="25.05" y="1.67" class="g">accurate</text></svg><svg x="4160"><use xlink:href="#a"/><use xlink:href="#6"/></svg><svg x="4240"><use xlink:href="#a"/><use xlink:href="#6"/></svg><svg x="4320"><use xlink:href="#a"/><use xlink:href="#6"/></svg><svg x="4400"><use xlink:href="#a"/><use xlink:href="#6"/></svg><svg x="4480"><use xlink:href="#a"/><use xlink:href="#6"/></svg><svg x="4560"><use xlink:href="#a"/><use xlink:href="#6"/></svg><svg x="4640"><use xlink:href="#a"/><use xlink:href="#6"/></svg><svg x="4720"><use xlink:href="#a"/><use xlink:href="#6"/><use xlink:href="#7" y="4.342"/></svg><svg x="4800"><use xlink:href="#a"/><use xlink:href="#6"/><use xlink:href="#7" y="4.342"/><use xlink:href="#8" y="6.513"/></svg><svg x="4880"><use xlink:href="#a"/><use xlink:href="#6"/><use xlink:href="#7" y="4.342"/><use xlink:href="#8" y="6.513"/></svg><svg x="4960"><use xlink:href="#a"/><use xlink:href="#6"/><use xlink:href="#7" y="4.342"/><use xlink:href="#8" y="6.513"/><use xlink:href="#9" y="10.855"/></svg><svg x="5040"><use xlink:href="#a"/><use xlink:href="#6"/><use xlink:href="#7" y="4.342"/><use xlink:href="#8" y="6.513"/><use xlink:href="#9" y="10.855"/><use xlink:href="#10" y="13.026"/></svg><svg x="5120"><use xlink:href="#a"/><use xlink:href="#6"/><use xlink:href="#7" y="4.342"/><use xlink:href="#8" y="6.513"/><use xlink:href="#9" y="10.855"/><use xlink:href="#10" y="13.026"/><use xlink:href="#11" y="15.197"/></svg><svg x="5200"><use xlink:href="#a"/><use xlink:href="#6"/><use xlink:href="#7" y="4.342"/><use xlink:href="#8" y="6.513"/><use xlink:href="#9" y="10.855"/><use xlink:href="#10" y="13.026"/><use xlink:href="#11" y="15.197"/><use xlink:href="#12" y="17.368"/></svg><svg x="5280"><use xlink:href="#a"/><use xlink:href="#6"/><use xlink:href="#7" y="4.342"/><use xlink:href="#8" y="6.513"/><use xlink:href="#9" y="10.855"/><use xlink:href="#10" y="13.026"/><use xlink:href="#11" y="15.197"/><use xlink:href="#12" y="17.368"/></svg><svg x="5360"><use xlink:href="#a"/><use xlink:href="#6"/><use xlink:href="#7" y="4.342"/><use xlink:href="#8" y="6.513"/><use xlink:href="#9" y="10.855"/><use xlink:href="#10" y="13.026"/><use xlink:href="#11" y="15.197"/><use xlink:href="#12" y="17.368"/><use xlink:href="#13" y="21.71"/></svg><svg x="5440"><use xlink:href="#a"/><use xlink:href="#6"/><use xlink:href="#7" y="4.342"/><use xlink:href="#8" y="6.513"/><use xlink:href="#9" y="10.855"/><use xlink:href="#10" y="13.026"/><use xlink:href="#11" y="15.197"/><use xlink:href="#12" y="17.368"/><use xlink:href="#13" y="21.71"/><use xlink:href="#14" y="23.881"/></svg><svg x="5520"><use xlink:href="#a"/><use xlink:href="#6"/><use xlink:href="#7" y="4.342"/><use xlink:href="#8" y="6.513"/><use xlink:href="#9" y="10.855"/><use xlink:href="#10" y="13.026"/><use xlink:href="#11" y="15.197"/><use xlink:href="#12" y="17.368"/><use xlink:href="#13" y="21.71"/><use xlink:href="#14" y="23.881"/><use xlink:href="#15" y="26.052"/></svg><svg x="5600"><use xlink:href="#a"/><use xlink:href="#6"/><use xlink:href="#7" y="4.342"/><use xlink:href="#8" y="6.513"/><use xlink:href="#9" y="10.855"/><use xlink:href="#10" y="13.026"/><use xlink:href="#11" y="15.197"/><use xlink:href="#12" y="17.368"/><use xlink:href="#13" y="21.71"/><use xlink:href="#14" y="23.881"/><use xlink:href="#15" y="26.052"/><use xlink:href="#16" y="28.223"/></svg><svg x="5680"><use xlink:href="#a"/><use xlink:href="#6"/><use xlink:href="#7" y="4.342"/><use xlink:href="#8" y="6.513"/><use xlink:href="#9" y="10.855"/><use xlink:href="#10" y="13.026"/><use xlink:href="#11" y="15.197"/><use xlink:href="#12" y="17.368"/><use xlink:href="#13" y="21.71"/><use xlink:href="#14" y="23.881"/><use xlink:href="#15" y="26.052"/><use xlink:href="#16" y="28.223"/><use xlink:href="#17" y="30.394"/></svg><svg x="5760"><use xlink:href="#a"/><use xlink:href="#6"/><use xlink:href="#7" y="4.342"/><use xlink:href="#8" y="6.513"/><use xlink:href="#9" y="10.855"/><use xlink:href="#10" y="13.026"/><use xlink:href="#11" y="15.197"/><use xlink:href="#12" y="17.368"/><use xlink:href="#13" y="21.71"/><use xlink:href="#14" y="23.881"/><use xlink:href="#15" y="26.052"/><use xlink:href="#16" y="28.223"/><use xlink:href="#17" y="30.394"/><use xlink:href="#18" y="32.565"/></svg><svg x="5840"><use xlink:href="#a"/><use xlink:href="#6"/><use xlink:href="#7" y="4.342"/><use xlink:href="#8" y="6.513"/><use xlink:href="#9" y="10.855"/><use xlink:href="#10" y="13.026"/><use xlink:href="#11" y="15.197"/><use xlink:href="#12" y="17.368"/><use xlink:href="#13" y="21.71"/><use xlink:href="#14" y="23.881"/><use xlink:href="#15" y="26.052"/><use xlink:href="#16" y="28.223"/><use xlink:href="#17" y="30.394"/><use xlink:href="#18" y="32.565"/><use xlink:href="#19" y="34.736"/></svg><svg x="5920"><use xlink:href="#a"/><use xlink:href="#6"/><use xlink:href="#7" y="4.342"/><use xlink:href="#8" y="6.513"/><use xlink:href="#9" y="10.855"/><use xlink:href="#10" y="13.026"/><use xlink:href="#11" y="15.197"/><use xlink:href="#12" y="17.368"/><use xlink:href="#13" y="21.71"/><use xlink:href="#14" y="23.881"/><use xlink:href="#15" y="26.052"/><use xlink:href="#16" y="28.223"/><use xlink:href="#17" y="30.394"/><use xlink:href="#18" y="32.565"/><use xlink:href="#19" y="34.736"/><use xlink:href="#20" y="36.907"/></svg><svg x="6000"><use xlink:href="#a"/><use xlink:href="#6"/><use xlink:href="#7" y="4.342"/><use xlink:href="#8" y="6.513"/><use xlink:href="#9" y="10.855"/><use xlink:href="#10" y="13.026"/><use xlink:href="#11" y="15.197"/><use xlink:href="#12" y="17.368"/><use xlink:href="#13" y="21.71"/><use xlink:href="#14" y="23.881"/><use xlink:href="#15" y="26.052"/><use xlink:href="#16" y="28.223"/><use xlink:href="#17" y="30.394"/><use xlink:href="#18" y="32.565"/><use xlink:href="#19" y="34.736"/><use xlink:href="#20" y="36.907"/><use xlink:href="#21" y="39.078"/></svg><svg x="6080"><use xlink:href="#a"/><use xlink:href="#6"/><use xlink:href="#7" y="4.342"/><use xlink:href="#8" y="6.513"/><use xlink:href="#9" y="10.855"/><use xlink:href="#10" y="13.026"/><use xlink:href="#11" y="15.197"/><use xlink:href="#12" y="17.368"/><use xlink:href="#13" y="21.71"/><use xlink:href="#14" y="23.881"/><use xlink:href="#15" y="26.052"/><use xlink:href="#16" y="28.223"/><use xlink:href="#17" y="30.394"/><use xlink:href="#18" y="32.565"/><use xlink:href="#19" y="34.736"/><use xlink:href="#20" y="36.907"/><use xlink:href="#21" y="39.078"/><use xlink:href="#22" y="41.249"/></svg><svg x="6160"><use xlink:href="#a"/><use xlink:href="#6"/><use xlink:href="#7" y="4.342"/><use xlink:href="#8" y="6.513"/><use xlink:href="#9" y="10.855"/><use xlink:href="#10" y="13.026"/><use xlink:href="#11" y="15.197"/><use xlink:href="#12" y="17.368"/><use xlink:href="#13" y="21.71"/><use xlink:href="#14" y="23.881"/><use xlink:href="#15" y="26.052"/><use xlink:href="#16" y="28.223"/><use xlink:href="#17" y="30.394"/><use xlink:href="#18" y="32.565"/><use xlink:href="#19" y="34.736"/><use xlink:href="#20" y="36.907"/><use xlink:href="#21" y="39.078"/><use xlink:href="#22" y="41.249"/></svg><svg x="6240"><use xlink:href="#a"/><use xlink:href="#6"/><use xlink:href="#7" y="4.342"/><use xlink:href="#8" y="6.513"/><use xlink:href="#9" y="10.855"/><use xlink:href="#10" y="13.026"/><use xlink:href="#11" y="15.197"/><use xlink:href="#12" y="17.368"/><use xlink:href="#13" y="21.71"/><use xlink:href="#14" y="23.881"/><use xlink:href="#15" y="26.052"/><use xlink:href="#16" y="28.223"/><use xlink:href="#17" y="30.394"/><use xlink:href="#18" y="32.565"/><use xlink:href="#19" y="34.736"/><use xlink:href="#20" y="36.907"/><use xlink:href="#21" y="39.078"/><use xlink:href="#22" y="41.249"/><use xlink:href="#23" y="45.591"/></svg><svg x="6320"><use xlink:href="#a"/><use xlink:href="#6"/><use xlink:href="#7" y="4.342"/><use xlink:href="#8" y="6.513"/><use xlink:href="#9" y="10.855"/><use xlink:href="#10" y="13.026"/><use xlink:href="#11" y="15.197"/><use xlink:href="#12" y="17.368"/><use xlink:href="#13" y="21.71"/><use xlink:href="#14" y="23.881"/><use xlink:href="#15" y="26.052"/><use xlink:href="#16" y="28.223"/><use xlink:href="#17" y="30.394"/><use xlink:href="#18" y="32.565"/><use xlink:href="#19" y="34.736"/><use xlink:href="#20" y="36.907"/><use xlink:href="#21" y="39.078"/><use xlink:href="#22" y="41.249"/><use xlink:href="#23" y="45.591"/><use xlink:href="#24" y="47.762"/></svg><svg x="6400"><use xlink:href="#a"/><use xlink:href="#6"/><use xlink:href="#7" y="4.342"/><use xlink:href="#8" y="6.513"/><use xlink:href="#9" y="10.855"/><use xlink:href="#10" y="13.026"/><use xlink:href="#11" y="15.197"/><use xlink:href="#12" y="17.368"/><use xlink:href="#13" y="21.71"/><use xlink:href="#14" y="23.881"/><use xlink:href="#15" y="26.052"/><use xlink:href="#16" y="28.223"/><use xlink:href="#17" y="30.394"/><use xlink:href="#18" y="32.565"/><use xlink:href="#19" y="34.736"/><use xlink:href="#20" y="36.907"/><use xlink:href="#21" y="39.078"/><use xlink:href="#22" y="41.249"/><use xlink:href="#23" y="45.591"/><use xlink:href="#24" y="47.762"/></svg></svg></g></g></svg></svg>